# xmcd CD database file
#
# Track frame offsets:
#	150
#	16950
#	33075
#	49575
#	69450
#	85950
#	101475
#	121500
#	136950
#	153825
#	171975
#	188250
#	200025
#	213975
#
# Disc length: 3058 seconds
#
# Revision: 1
# Processed by: cddbd v1.5.2PL0 Copyright (c) Steve Scherf et al.
# Submitted via: freeDBTagger 0.8.1.0
#
DISCID=ac0bf00e
DTITLE=Mario Vazquez - Mario Vazquez
DYEAR=2006
DGENRE=blues
TTITLE0=Gallery
TTITLE1=Gallery
TTITLE2=Gallery
TTITLE3=Gallery
TTITLE4=Gallery
TTITLE5=Gallery
TTITLE6=Gallery
TTITLE7=Gallery
TTITLE8=Gallery
TTITLE9=Gallery
TTITLE10=Gallery
TTITLE11=Gallery
TTITLE12=Gallery
TTITLE13=Gallery
EXTD=
EXTT0=
EXTT1=
EXTT2=
EXTT3=
EXTT4=
EXTT5=
EXTT6=
EXTT7=
EXTT8=
EXTT9=
EXTT10=
EXTT11=
EXTT12=
EXTT13=
PLAYORDER=
